<svg width="1250" height="35" viewBox="0 0 1250 35" fill="none" xmlns="http://www.w3.org/2000/svg">
<path d="M1218.8 0.190063C1203.15 0.190063 1203.15 14.1901 1187.61 14.1901C1172.07 14.1901 1171.96 0.190063 1156.41 0.190063C1140.87 0.190063 1140.76 14.1901 1125.22 14.1901C1109.57 14.1901 1109.57 0.190063 1093.91 0.190063C1078.26 0.190063 1078.26 14.1901 1062.72 14.1901C1047.07 14.1901 1047.07 0.190063 1031.52 0.190063C1015.87 0.190063 1015.87 14.1901 1000.33 14.1901C984.783 14.1901 984.348 0.190063 968.804 0.190063C953.152 0.190063 953.152 14.1901 937.609 14.1901C922.065 14.1901 921.848 0.190063 906.304 0.190063C890.652 0.190063 890.652 14.1901 875.109 14.1901C859.456 14.1901 859.456 0.190063 843.804 0.190063C828.152 0.190063 828.152 14.1901 812.609 14.1901C796.956 14.1901 796.957 0.190063 781.413 0.190063C765.87 0.190063 765.652 14.1901 750 14.1901C734.348 14.1901 734.348 0.190063 718.804 0.190063C703.152 0.190063 703.152 14.1901 687.609 14.1901C671.956 14.1901 671.956 0.190063 656.304 0.190063C640.652 0.190063 640.652 14.1901 625.109 14.1901C609.456 14.1901 609.457 0.190063 593.913 0.190063C578.261 0.190063 578.261 14.1901 562.717 14.1901C547.065 14.1901 547.065 0.190063 531.522 0.190063C515.87 0.190063 515.87 14.1901 500.217 14.1901C484.565 14.1901 484.565 0.190063 468.913 0.190063C453.261 0.190063 453.261 14.1901 437.609 14.1901C421.957 14.1901 421.957 0.190063 406.304 0.190063C390.652 0.190063 390.652 14.1901 375 14.1901C359.348 14.1901 359.348 0.190063 343.696 0.190063C328.043 0.190063 328.043 14.1901 312.391 14.1901C296.739 14.1901 296.739 0.190063 281.087 0.190063C265.435 0.190063 265.435 14.1901 249.891 14.1901C234.239 14.1901 234.239 0.190063 218.587 0.190063C202.935 0.190063 202.935 14.1901 187.283 14.1901C171.63 14.1901 171.63 0.190063 155.978 0.190063C140.326 0.190063 140.326 14.1901 124.674 14.1901C109.022 14.1901 109.022 0.190063 93.3696 0.190063C78.1522 0.190063 78.1522 14.1901 62.5 14.1901C46.8478 14.1901 46.8478 0.190063 31.3043 0.190063C15.7609 0.190063 15.6522 14.1901 0 14.1901V34.1901H1250V14.1901C1234.35 14.1901 1234.35 0.190063 1218.8 0.190063Z" fill="white"/>
</svg>
