<svg width="23" height="22" viewBox="0 0 23 22" fill="none" xmlns="http://www.w3.org/2000/svg">
<path d="M22.5989 12.5999C22.5989 10.1999 22.2989 7.7999 22.2989 5.4999C22.2989 4.6999 22.1989 3.99991 22.0989 3.19991C21.9989 2.89991 21.9989 2.4999 21.8989 2.0999C21.5989 1.8999 21.6989 1.4999 21.3989 1.2999C20.9989 1.0999 20.1989 1.1999 19.6989 1.0999C18.9989 1.0999 18.3989 0.999902 17.7989 0.899902C15.8989 0.799902 13.7989 0.799904 11.7989 0.799904C9.79895 0.799904 7.79895 0.699902 6.09895 0.399902H3.89895C3.79895 0.399902 3.79895 0.499905 3.69895 0.499905C3.09895 0.499905 2.59895 0.699904 2.09895 0.799904C1.89895 0.899904 1.69895 0.999903 1.39895 1.0999C1.29895 1.2999 0.898946 1.1999 0.798946 1.4999C0.598946 1.6999 0.998946 1.9999 0.798946 2.0999V2.9999C0.998946 3.0999 0.798948 3.5999 0.898948 3.7999V4.7999C0.898948 6.0999 0.998947 7.1999 0.998947 8.4999C1.49895 11.2999 1.39895 14.9999 1.09895 17.8999C1.29895 18.4999 1.49895 18.9999 1.59895 19.5999C1.89895 20.0999 1.89895 20.6999 2.29895 21.0999C2.79895 21.2999 3.49895 21.2999 4.19895 21.2999C4.59895 21.3999 4.89895 21.5999 5.29895 21.5999C8.09895 21.3999 10.7989 21.3999 13.6989 21.3999C16.3989 21.5999 19.499 21.5999 21.999 21.1999C22.199 21.0999 22.0989 20.6999 22.1989 20.3999C22.0989 19.9999 22.3989 19.9999 22.3989 19.5999C22.5989 17.4999 22.5989 15.0999 22.5989 12.5999ZM9.59895 6.3999C10.3989 6.1999 11.099 6.0999 11.999 6.0999C12.699 6.1999 13.2989 6.3999 13.8989 6.5999C13.9989 6.7999 13.6989 7.0999 14.0989 7.2999C14.1989 7.2999 14.1989 7.2999 14.2989 7.3999C14.6989 7.3999 15.0989 7.5999 15.3989 7.7999C15.8989 7.8999 15.899 8.29991 16.499 8.19991C16.399 8.39991 16.3989 8.6999 16.3989 8.9999C16.6989 10.1999 16.8989 11.7999 16.6989 13.2999C16.4989 13.4999 16.4989 13.6999 16.3989 13.9999C16.0989 14.2999 15.8989 14.7999 15.5989 15.0999C15.4989 15.2999 15.2989 15.4999 15.0989 15.5999C14.9989 15.7999 14.8989 16.0999 14.5989 16.0999C14.2989 16.2999 13.9989 16.0999 13.7989 15.9999C13.3989 16.1999 12.8989 16.2999 12.5989 16.5999C11.7989 16.4999 10.9989 16.3999 10.1989 16.2999C9.99895 16.1999 9.69895 15.9999 9.39895 15.9999C9.19895 15.7999 8.89895 15.5999 8.59895 15.4999C8.49895 15.3999 8.29895 15.3999 8.09895 15.2999C7.89895 15.2999 7.89895 15.0999 7.59895 15.0999C7.49895 14.6999 7.19895 14.4999 7.09895 13.9999C6.89895 13.6999 6.79895 13.1999 6.59895 12.7999C6.59895 11.3999 6.69895 10.0999 6.99895 8.9999C7.29895 8.3999 7.79895 7.8999 8.09895 7.2999C8.29895 7.2999 8.49895 7.1999 8.49895 6.9999C8.79895 7.0999 8.89895 6.8999 9.19895 6.8999C9.39895 6.8999 9.39895 6.5999 9.59895 6.3999ZM7.89895 3.69991C7.79895 3.39991 7.79895 2.9999 7.79895 2.5999C7.79895 2.2999 8.09895 2.2999 8.09895 2.0999C8.09895 1.9999 7.99895 1.9999 7.89895 1.9999C7.99895 1.8999 8.59895 1.8999 8.69895 1.9999C8.79895 2.4999 8.29895 2.49991 8.19895 2.69991C8.19895 2.89991 8.49895 2.6999 8.69895 2.7999C8.69895 3.6999 8.59895 4.2999 8.69895 4.9999H8.19895C8.19895 5.1999 8.39895 5.19991 8.69895 5.19991C8.59895 5.49991 8.79895 5.5999 8.79895 5.7999C8.59895 5.9999 8.09895 5.7999 7.69895 5.8999C7.69895 5.2999 7.99895 4.49991 7.89895 3.69991ZM7.19895 2.0999C7.29895 2.0999 7.29895 2.09991 7.39895 2.19991C7.59895 2.49991 7.39895 2.8999 7.29895 3.0999C7.09895 2.8999 7.29895 2.3999 7.19895 2.0999ZM7.39895 3.8999C7.29895 3.7999 7.19895 3.6999 7.19895 3.3999C7.39895 3.4999 7.39895 3.6999 7.39895 3.8999ZM7.39895 5.2999C7.29895 5.3999 7.29895 5.2999 7.29895 5.0999C7.39895 4.9999 7.39895 5.1999 7.39895 5.2999ZM7.19895 5.4999C7.39895 5.4999 7.29895 5.69991 7.39895 5.69991C7.39895 5.89991 7.09895 5.8999 6.99895 5.7999C7.09895 5.6999 7.19895 5.5999 7.19895 5.4999ZM4.89895 4.2999C4.89895 4.1999 4.89895 4.0999 4.79895 4.0999C4.69895 3.3999 4.89895 2.6999 4.79895 2.0999C5.09895 1.8999 5.59895 2.0999 5.89895 1.9999V3.0999C5.79895 3.1999 5.69895 3.19991 5.49895 3.19991C5.39895 3.49991 5.79895 3.2999 5.89895 3.4999C5.89895 4.3999 5.79895 5.2999 6.09895 5.8999C5.49895 5.7999 5.19895 5.9999 4.69895 5.9999C4.79895 5.3999 4.69895 4.5999 5.19895 4.3999C5.19895 4.2999 4.89895 4.3999 4.89895 4.2999ZM4.39895 4.2999C4.19895 4.2999 4.19895 3.79991 4.29895 3.69991C4.59895 3.69991 4.49895 4.1999 4.39895 4.2999ZM4.19895 5.2999C4.29895 4.9999 4.19895 4.9999 4.29895 4.5999C4.49895 4.5999 4.49895 5.3999 4.19895 5.2999ZM4.39895 3.19991C4.09895 3.29991 4.09895 2.8999 4.19895 2.7999C4.49895 2.7999 4.59895 3.09991 4.39895 3.19991ZM4.39895 2.0999C4.39895 2.2999 4.29895 2.2999 4.29895 2.3999C4.09895 2.3999 4.19895 2.19991 4.09895 2.19991C4.19895 2.09991 4.29895 2.0999 4.39895 2.0999ZM4.19895 5.7999C4.29895 5.7999 4.29895 6.0999 4.09895 5.9999C4.19895 5.9999 4.19895 5.8999 4.19895 5.7999ZM3.49895 2.0999C3.49895 2.3999 3.09895 2.3999 3.09895 2.0999H3.49895ZM2.49895 2.19991C2.49895 2.39991 2.19895 2.3999 2.09895 2.5999C1.89895 2.3999 2.19895 2.09991 2.49895 2.19991ZM2.09895 2.8999C2.29895 2.6999 2.59895 2.4999 2.79895 2.2999C2.79895 2.1999 2.89895 2.1999 2.89895 2.0999H3.09895C3.19895 2.4999 2.79895 2.3999 2.79895 2.5999C2.79895 2.6999 2.69895 2.6999 2.69895 2.7999C2.69895 3.0999 2.79895 3.3999 2.79895 3.7999C2.49895 3.7999 2.49895 4.0999 2.19895 3.9999C2.19895 3.5999 1.99895 3.3999 2.09895 2.8999ZM2.19895 6.19991V4.5999C2.39895 4.3999 2.59895 4.1999 2.79895 4.0999C3.09895 4.5999 2.99895 5.4999 3.29895 5.9999C2.89895 6.0999 2.49895 6.09991 2.19895 6.19991ZM20.3989 17.2999C20.2989 18.2999 20.199 19.2999 19.999 20.0999C17.099 20.1999 13.9989 20.0999 11.0989 20.2999C10.8989 20.2999 10.7989 20.2999 10.8989 20.0999C10.5989 20.0999 10.5989 20.2999 10.3989 20.2999C10.5989 19.9999 10.7989 19.3999 10.5989 18.9999C9.79895 18.9999 9.79895 19.7999 9.49895 20.2999C8.79895 20.1999 8.39895 20.3999 7.69895 20.3999C7.89895 19.6999 8.39895 19.3999 8.59895 18.6999C8.19895 18.1999 7.59895 18.7999 7.39895 19.1999C7.19895 19.6999 6.79895 19.9999 6.59895 20.4999H5.59895C5.79895 19.9999 6.09895 19.5999 6.39895 19.0999C6.59895 18.5999 6.99895 18.3999 7.09895 17.6999C6.89895 17.3999 6.69895 17.6999 6.39895 17.6999C6.29895 17.8999 6.09895 17.9999 5.99895 18.1999C5.79895 18.5999 5.49895 18.8999 5.29895 19.2999C5.09895 19.4999 4.99895 19.2999 4.79895 19.4999C4.39895 19.7999 4.19895 20.1999 3.79895 20.4999C3.59895 20.3999 3.79895 20.0999 3.99895 20.0999C3.99895 19.8999 3.89895 19.5999 4.09895 19.4999C4.19895 19.0999 4.29895 18.8999 4.49895 18.5999C4.59895 17.8999 4.99895 17.3999 5.19895 16.6999C4.59895 16.7999 4.49895 17.2999 4.19895 17.6999C3.99895 18.0999 3.69895 18.4999 3.49895 18.9999C3.29895 18.8999 3.49895 18.3999 3.39895 18.1999C3.49895 17.5999 3.69895 17.0999 3.79895 16.4999C3.89895 16.2999 3.99895 15.9999 3.99895 15.6999C4.19895 15.4999 3.99895 15.0999 3.89895 14.8999C3.69895 14.8999 3.49895 14.9999 3.39895 15.1999C3.19895 15.1999 3.19895 15.6999 3.09895 15.4999C3.09895 12.8999 2.59895 10.6999 2.59895 8.0999C2.59895 7.7999 2.39895 7.6999 2.39895 7.3999C3.99895 7.3999 5.49895 7.4999 7.19895 7.5999C7.09895 7.6999 6.99895 7.8999 6.89895 7.9999C6.79895 8.0999 6.69895 8.1999 6.49895 8.2999C5.89895 9.9999 5.49895 12.2999 5.89895 14.4999C6.09895 15.0999 6.49895 15.4999 6.89895 15.8999C7.79895 16.3999 8.49895 16.9999 9.39895 17.5999C11.0989 17.9999 13.1989 17.9999 14.8989 17.5999C15.0989 17.4999 15.3989 17.3999 15.5989 17.1999C16.9989 15.9999 18.3989 14.6999 18.5989 12.2999V10.8999C18.3989 9.2999 17.8989 7.9999 16.8989 7.2999C17.1989 7.0999 17.9989 7.2999 18.5989 7.3999C18.799 7.3999 18.9989 7.3999 19.2989 7.3999C19.6989 7.3999 20.1989 7.2999 20.6989 7.3999C20.7989 7.5999 20.7989 7.89991 20.8989 8.19991C20.7989 9.89991 20.6989 11.4999 20.6989 13.2999C20.7989 13.7999 20.7989 14.2999 20.8989 14.6999C20.6989 15.4999 20.5989 16.3999 20.3989 17.2999ZM20.7989 6.0999C20.1989 5.9999 19.5989 5.79991 18.8989 5.69991C18.9989 5.39991 19.6989 5.6999 19.8989 5.4999C20.2989 5.2999 20.1989 4.5999 20.1989 3.9999C20.1989 3.6999 20.2989 3.3999 20.2989 2.8999C19.8989 1.8999 18.4989 2.4999 17.3989 2.3999C17.1989 3.0999 16.8989 4.1999 17.0989 5.0999C17.299 5.5999 18.0989 5.3999 18.5989 5.5999C18.4989 5.8999 17.8989 5.69991 17.5989 5.69991C17.299 5.59991 16.8989 5.5999 16.5989 5.4999C14.2989 5.5999 12.2989 5.49991 10.0989 5.69991C10.1989 4.49991 10.1989 3.1999 9.99895 2.0999H13.0989C12.7989 2.4999 12.1989 2.5999 11.7989 2.8999C11.3989 3.0999 10.8989 3.3999 10.6989 3.7999C10.8989 3.8999 11.1989 3.5999 11.4989 3.3999C11.8989 3.2999 11.9989 2.9999 12.2989 2.8999C12.6989 2.4999 13.399 2.2999 13.999 1.9999C14.399 1.9999 14.699 1.9999 14.999 2.0999C16.299 2.0999 17.4989 2.19991 18.7989 2.19991C19.3989 2.29991 20.2989 2.2999 20.7989 2.4999C20.8989 2.7999 20.9989 3.0999 21.0989 3.3999C20.9989 4.3999 20.7989 5.1999 20.7989 6.0999ZM14.8989 2.3999C14.9989 2.2999 14.8989 2.2999 14.8989 2.3999V2.3999ZM14.8989 2.3999C14.3989 2.5999 13.899 2.6999 13.499 3.0999C13.999 2.8999 14.5989 2.7999 14.8989 2.3999ZM15.999 2.9999C16.099 2.8999 15.999 2.8999 15.999 2.9999V2.9999ZM14.1989 3.8999C14.8989 3.6999 15.3989 3.2999 15.8989 2.9999C15.4989 2.9999 15.2989 3.2999 14.8989 3.3999C14.7989 3.5999 14.3989 3.5999 14.1989 3.8999ZM13.499 3.0999C13.399 3.0999 13.599 3.1999 13.499 3.0999V3.0999ZM12.8989 3.69991C12.9989 3.59991 12.8989 3.59991 12.8989 3.69991V3.69991ZM12.7989 3.7999C12.8989 3.7999 12.8989 3.6999 12.7989 3.7999C12.7989 3.6999 12.7989 3.6999 12.7989 3.7999ZM12.6989 3.7999C12.7989 3.7999 12.7989 3.7999 12.6989 3.7999C12.6989 3.6999 12.6989 3.7999 12.6989 3.7999ZM11.8989 4.3999C12.1989 4.2999 12.4989 4.0999 12.6989 3.7999C12.3989 3.9999 12.0989 4.1999 11.8989 4.3999ZM14.1989 5.3999C14.6989 5.3999 14.8989 4.9999 15.3989 4.8999C15.6989 4.5999 16.1989 4.4999 16.3989 4.0999C15.7989 4.0999 15.5989 4.4999 15.1989 4.5999C14.8989 4.9999 14.3989 5.0999 14.1989 5.3999ZM11.8989 4.3999C11.5989 4.3999 11.8989 4.6999 11.8989 4.3999V4.3999ZM11.2989 4.7999C11.3989 4.7999 11.4989 4.7999 11.2989 4.7999C11.3989 4.6999 11.2989 4.7999 11.2989 4.7999ZM14.1989 5.3999C13.9989 5.4999 14.1989 5.4999 14.1989 5.3999V5.3999ZM12.999 7.19991C12.799 6.99991 12.299 6.9999 11.999 6.7999C11.299 6.7999 10.7989 6.8999 10.2989 6.9999C9.99895 7.1999 9.69895 7.2999 9.39895 7.4999C9.09895 7.6999 8.99895 7.8999 8.59895 7.9999C8.39895 8.1999 8.19895 8.4999 7.89895 8.5999C7.89895 8.7999 7.69895 8.8999 7.59895 8.9999C7.49895 9.09991 7.49895 9.2999 7.39895 9.3999C7.39895 9.4999 7.39895 9.69991 7.29895 9.69991C7.39895 11.1999 7.59895 12.5999 7.99895 13.8999C8.29895 14.4999 8.99895 14.6999 9.39895 15.1999C9.99895 15.4999 10.6989 15.5999 11.4989 15.6999C11.7989 15.5999 12.0989 15.5999 12.3989 15.5999C13.5989 15.3999 14.4989 14.8999 15.1989 14.1999C15.2989 13.8999 15.4989 13.6999 15.6989 13.4999C15.3989 12.7999 15.9989 12.3999 16.1989 11.8999C16.1989 10.5999 15.9989 9.3999 15.5989 8.4999C15.2989 7.8999 14.6989 7.6999 14.1989 7.3999C14.0989 7.3999 13.999 7.3999 13.999 7.2999C13.799 7.1999 13.299 7.09991 12.999 7.19991ZM9.59895 11.5999C9.49895 11.4999 9.49895 11.3999 9.39895 11.1999C9.69895 11.0999 9.59895 11.3999 9.59895 11.5999ZM9.69895 11.8999C9.69895 11.7999 9.79895 11.8999 9.69895 11.8999C9.69895 12.0999 9.69895 11.9999 9.69895 11.8999ZM10.0989 9.7999C10.0989 9.6999 10.1989 9.7999 10.0989 9.7999C10.1989 9.8999 10.0989 9.8999 10.0989 9.7999ZM11.7989 7.69991C11.5989 7.99991 11.7989 8.2999 11.8989 8.4999C11.5989 8.4999 11.2989 7.69991 11.7989 7.69991ZM12.1989 11.5999C12.0989 11.5999 12.1989 11.5999 12.1989 11.5999C12.2989 11.5999 12.1989 11.6999 12.1989 11.5999ZM12.8989 14.4999C12.8989 14.3999 12.9989 14.4999 13.0989 14.4999C13.0989 14.5999 12.8989 14.5999 12.8989 14.4999ZM15.0989 11.9999C14.8989 11.8999 14.9989 12.1999 14.6989 12.1999C14.7989 11.9999 14.7989 11.8999 14.8989 11.6999C15.0989 11.6999 15.1989 11.7999 15.0989 11.9999ZM13.999 8.19991C14.199 8.29991 14.3989 8.3999 14.5989 8.5999C14.6989 8.7999 14.799 8.9999 14.999 9.0999C15.099 9.8999 15.1989 10.5999 15.1989 11.4999C14.8989 11.5999 14.799 11.7999 14.499 11.8999C13.699 11.8999 13.0989 11.6999 12.5989 11.3999C12.3989 11.0999 12.1989 10.8999 12.0989 10.5999V9.4999C12.2989 9.2999 12.3989 9.0999 12.5989 8.8999C12.7989 8.7999 13.0989 8.6999 13.0989 8.2999C13.0989 8.1999 12.999 8.1999 12.999 8.0999C13.199 8.0999 13.1989 8.2999 13.3989 8.2999C13.5989 8.2999 13.699 8.09991 13.999 8.19991Z"/>
</svg>
