<svg xmlns="http://www.w3.org/2000/svg" xmlns:xlink="http://www.w3.org/1999/xlink"><symbol id="cart" viewBox="0 0 21 18">
<path d="M20.1884 6.85716H16.6377L13.1884 0.380944C12.9855 -8.61287e-06 12.5797 -0.0952351 12.1739 0.0952412C11.7681 0.285717 11.6667 0.66667 11.8696 1.04762L15.0145 6.85716H5.7826L8.92753 1.04762C9.13043 0.66667 8.92754 0.285717 8.6232 0.0952412C8.2174 -0.0952351 7.8116 0.0952295 7.6087 0.380944L4.1594 6.85716H0.811583C0.405785 6.85716 0 7.14286 0 7.61905C0 8 0.304336 8.38094 0.811583 8.38094H1.01449L1.92753 11.2381C1.72463 11.3333 1.62317 11.5238 1.62317 11.8095C1.62317 12.1905 1.92753 12.4762 2.33332 12.4762L4.05797 18H16.942L18.6667 12.4762C19.0725 12.4762 19.3768 12.1905 19.3768 11.8095C19.3768 11.619 19.2754 11.3333 19.0725 11.2381L19.9855 8.38094H20.1884C20.5942 8.38094 21 8.09524 21 7.61905C21 7.14286 20.5942 6.85716 20.1884 6.85716ZM15.6232 16.4762H5.07247L3.85506 12.381H16.942L15.6232 16.4762ZM17.2464 10.9524H3.34782L2.53623 8.28573H18.058L17.2464 10.9524Z"/>
</symbol><symbol id="fb" viewBox="0 0 16 30">
<path d="M12.3025 5.94251C13.3014 5.94251 14.3004 5.94251 14.9996 5.63003C15.3992 4.79672 15.599 3.65093 15.599 2.50514C15.3992 2.50514 15.4991 2.19265 15.3992 2.08849C15.3992 1.88016 15.0995 1.88016 15.0995 1.67183C14.7999 1.46351 14.6001 1.25518 14.4003 1.04686C13.701 0.83853 13.0018 0.734367 12.2026 0.526042C11.4035 0.526042 10.3046 0.421877 9.60539 0.630203C7.00816 0.630203 5.60965 1.776 4.31104 3.13011C4.31104 3.23428 4.31104 3.33844 4.21114 3.33844C3.61178 5.00505 4.11125 7.0883 4.01136 9.17156C4.11125 9.58821 4.11125 10.2132 4.21114 10.6298C3.21221 10.9423 2.01349 11.0465 0.814769 11.1507C0.515089 11.4631 0.614982 12.2965 0.614982 12.9214C0.714875 13.5464 0.914664 14.0672 1.01456 14.588C1.21434 14.7964 1.61392 15.0047 1.8137 15.1089C1.9136 15.1089 1.9136 15.213 1.9136 15.213C2.41306 15.5255 3.412 15.213 4.21114 15.3172C4.11125 17.4004 4.51082 19.3795 4.21114 21.2545C4.21114 21.567 4.51083 21.6711 4.41093 22.0878C4.41093 23.1294 4.31104 24.171 4.61072 24.9002C4.31104 25.421 4.11125 25.9418 4.21114 26.7751C4.31104 26.7751 4.31104 26.9834 4.31104 27.0876C4.21115 27.6084 4.9104 27.2959 4.81051 27.8167C5.01029 28.3375 4.41093 28.025 4.41093 28.3375V29.275C4.9104 29.5875 5.90933 29.4833 6.70848 29.4833C7.60752 29.0667 8.90614 28.9625 9.5055 28.2334C10.005 28.4417 10.4045 28.2334 10.7042 28.0251C10.7042 27.7126 11.0039 27.7126 10.904 27.2959C10.904 26.9834 10.7042 26.7751 10.8041 26.3584V23.3377C10.6043 20.942 10.8041 18.2337 10.5044 15.838C11.4035 15.7338 12.4024 15.7338 13.1017 15.4213C13.5012 14.9005 13.5012 14.1714 13.6011 13.4422C13.8009 13.2339 13.8009 12.8173 13.8009 12.4006C14.0007 12.1923 13.9008 11.6715 13.9008 11.2548C13.8009 10.6298 13.701 9.90071 13.1017 9.79654C12.2026 9.58822 11.1038 10.4215 10.1049 10.109C10.1049 8.96324 9.80518 7.71328 10.1049 6.56749C10.904 6.35916 11.6033 6.15084 12.3025 5.94251ZM8.50657 10.9423C8.60646 11.2548 8.80625 11.4631 8.90614 11.6715C9.00603 11.6715 9.10592 11.6715 9.10592 11.7756C10.3046 11.8798 11.3036 11.6715 12.2026 11.4631C12.2026 12.5048 11.9029 13.2339 11.7032 14.0672C11.0039 14.0672 10.2048 14.3797 9.70528 14.2755C9.4056 14.4839 9.30571 14.7964 9.10592 15.0047C9.10592 15.4213 9.20582 15.5255 9.10592 15.838C8.90614 15.9422 9.00603 16.463 8.90614 16.6713V18.2337C9.00603 18.5462 8.80624 18.5462 8.80624 18.7546V22.4003C8.70635 22.7127 8.90614 22.7127 8.90614 22.9211V26.046C9.00603 26.3584 8.80625 26.8793 9.00603 26.9834C8.90614 27.4001 8.60646 26.9834 8.20688 27.0876C7.70742 27.1917 7.30784 27.5042 6.70848 27.5042C6.80837 27.0876 7.00816 26.8793 7.00816 26.3584C7.00816 25.9418 6.60859 26.046 6.5087 25.8376C6.70848 25.2127 7.10805 24.6918 7.20795 23.9627C7.40773 23.4419 7.90721 22.6086 7.50763 22.0878C7.00816 21.9836 7.00816 22.4003 6.70848 22.5044C6.70848 22.6086 6.70848 22.7127 6.60859 22.7127C6.60859 22.8169 6.60859 22.9211 6.5087 22.9211C6.5087 23.0252 6.30891 23.0252 6.5087 22.9211C6.5087 22.8169 6.5087 22.7127 6.60859 22.7127C6.60859 22.6086 6.60859 22.5044 6.70848 22.5044V22.1919C7.10805 21.567 7.40774 20.942 7.50763 20.1087C7.70742 19.7962 7.80731 19.3795 7.9072 19.067C8.10699 18.7546 8.20689 18.1296 8.0071 17.8171C7.50763 17.8171 7.20795 18.1296 7.10806 18.5462C6.80838 18.3379 7.30784 18.1296 7.20795 17.8171C7.30784 17.6088 7.40774 17.1921 7.50763 16.9838C7.70742 16.5671 8.10699 15.6297 7.50763 15.3172C7.10806 15.3172 6.90827 15.5255 6.80838 15.838C6.60859 16.0463 6.4088 16.2546 6.30891 16.5671C5.90934 16.463 6.20901 15.838 6.10912 15.4213C6.00923 14.9005 6.20901 14.4839 6.10912 14.1714C5.50976 13.3381 4.11125 14.0672 2.91253 13.8589C2.81264 13.5464 2.71274 12.8173 2.81264 12.6089C3.81157 12.5048 5.30998 12.8173 6.00923 12.4006C6.00923 12.2965 6.00923 12.1923 6.10912 12.1923C6.20901 11.4631 5.80944 11.1507 5.60965 10.734C5.80944 9.9007 5.60965 8.65075 5.70955 7.60912C5.90933 7.50496 6.00923 7.19247 6.20901 6.98414C6.30891 5.94251 6.90827 5.4217 6.90827 4.38007C6.60859 4.38007 6.30891 4.27591 6.30891 4.5884C6.00923 4.48423 5.90934 5.10921 5.80944 4.79672C5.70955 4.2759 6.00923 4.17174 6.10912 3.75509C6.70848 3.33844 7.30784 2.92179 8.0071 2.50514C9.70529 2.29681 12.6022 2.08848 14.1006 2.71346C14.2005 3.33844 13.8009 3.65093 13.9008 4.27591H12.4024C11.3036 4.48423 10.4045 5.00505 9.40561 5.31753C9.20582 5.4217 9.10593 5.63002 8.90614 5.73419C8.90614 6.15084 8.70635 6.35916 8.60646 6.77582C8.30678 8.2341 8.50657 9.48405 8.50657 10.9423Z"/>
</symbol><symbol id="htmlacademy" viewBox="0 0 27 34">
<path d="M13.6506 0H13.5502L0 1.39589V26.0235L13.5502 34L27 26.0235V1.39589L13.6506 0ZM25.0929 12.0645L13.5502 5.28446V5.18475H13.4498L13.3494 5.08504V5.18475L1.90706 12.0645V3.09091L13.4498 1.89443L25.0929 3.09091V12.0645ZM13.4498 6.78006L24.9926 13.4604L20.4758 16.0528L13.3494 11.8651V13.261L19.2714 16.7507L18.368 17.2493L13.3494 14.2581V15.654L17.1636 17.9472L16.3606 18.4457L13.3494 16.651V18.0469L15.2565 19.1437L13.4498 20.2405L2.00744 13.5601L13.4498 6.78006ZM1.90706 15.0557L13.3494 21.8358V22.8328L5.42007 18.1466V19.5425L13.4498 24.3284V25.4252L5.42007 20.739V22.1349L13.4498 26.9208L21.5799 22.0352V16.8504L24.9926 14.8563V24.827L13.4498 31.7067L1.90706 24.9267V15.0557Z"/>
</symbol><symbol id="insta" viewBox="0 0 23 22">
<path d="M22.5989 12.5999C22.5989 10.1999 22.2989 7.7999 22.2989 5.4999C22.2989 4.6999 22.1989 3.99991 22.0989 3.19991C21.9989 2.89991 21.9989 2.4999 21.8989 2.0999C21.5989 1.8999 21.6989 1.4999 21.3989 1.2999C20.9989 1.0999 20.1989 1.1999 19.6989 1.0999C18.9989 1.0999 18.3989 0.999902 17.7989 0.899902C15.8989 0.799902 13.7989 0.799904 11.7989 0.799904C9.79895 0.799904 7.79895 0.699902 6.09895 0.399902H3.89895C3.79895 0.399902 3.79895 0.499905 3.69895 0.499905C3.09895 0.499905 2.59895 0.699904 2.09895 0.799904C1.89895 0.899904 1.69895 0.999903 1.39895 1.0999C1.29895 1.2999 0.898946 1.1999 0.798946 1.4999C0.598946 1.6999 0.998946 1.9999 0.798946 2.0999V2.9999C0.998946 3.0999 0.798948 3.5999 0.898948 3.7999V4.7999C0.898948 6.0999 0.998947 7.1999 0.998947 8.4999C1.49895 11.2999 1.39895 14.9999 1.09895 17.8999C1.29895 18.4999 1.49895 18.9999 1.59895 19.5999C1.89895 20.0999 1.89895 20.6999 2.29895 21.0999C2.79895 21.2999 3.49895 21.2999 4.19895 21.2999C4.59895 21.3999 4.89895 21.5999 5.29895 21.5999C8.09895 21.3999 10.7989 21.3999 13.6989 21.3999C16.3989 21.5999 19.499 21.5999 21.999 21.1999C22.199 21.0999 22.0989 20.6999 22.1989 20.3999C22.0989 19.9999 22.3989 19.9999 22.3989 19.5999C22.5989 17.4999 22.5989 15.0999 22.5989 12.5999ZM9.59895 6.3999C10.3989 6.1999 11.099 6.0999 11.999 6.0999C12.699 6.1999 13.2989 6.3999 13.8989 6.5999C13.9989 6.7999 13.6989 7.0999 14.0989 7.2999C14.1989 7.2999 14.1989 7.2999 14.2989 7.3999C14.6989 7.3999 15.0989 7.5999 15.3989 7.7999C15.8989 7.8999 15.899 8.29991 16.499 8.19991C16.399 8.39991 16.3989 8.6999 16.3989 8.9999C16.6989 10.1999 16.8989 11.7999 16.6989 13.2999C16.4989 13.4999 16.4989 13.6999 16.3989 13.9999C16.0989 14.2999 15.8989 14.7999 15.5989 15.0999C15.4989 15.2999 15.2989 15.4999 15.0989 15.5999C14.9989 15.7999 14.8989 16.0999 14.5989 16.0999C14.2989 16.2999 13.9989 16.0999 13.7989 15.9999C13.3989 16.1999 12.8989 16.2999 12.5989 16.5999C11.7989 16.4999 10.9989 16.3999 10.1989 16.2999C9.99895 16.1999 9.69895 15.9999 9.39895 15.9999C9.19895 15.7999 8.89895 15.5999 8.59895 15.4999C8.49895 15.3999 8.29895 15.3999 8.09895 15.2999C7.89895 15.2999 7.89895 15.0999 7.59895 15.0999C7.49895 14.6999 7.19895 14.4999 7.09895 13.9999C6.89895 13.6999 6.79895 13.1999 6.59895 12.7999C6.59895 11.3999 6.69895 10.0999 6.99895 8.9999C7.29895 8.3999 7.79895 7.8999 8.09895 7.2999C8.29895 7.2999 8.49895 7.1999 8.49895 6.9999C8.79895 7.0999 8.89895 6.8999 9.19895 6.8999C9.39895 6.8999 9.39895 6.5999 9.59895 6.3999ZM7.89895 3.69991C7.79895 3.39991 7.79895 2.9999 7.79895 2.5999C7.79895 2.2999 8.09895 2.2999 8.09895 2.0999C8.09895 1.9999 7.99895 1.9999 7.89895 1.9999C7.99895 1.8999 8.59895 1.8999 8.69895 1.9999C8.79895 2.4999 8.29895 2.49991 8.19895 2.69991C8.19895 2.89991 8.49895 2.6999 8.69895 2.7999C8.69895 3.6999 8.59895 4.2999 8.69895 4.9999H8.19895C8.19895 5.1999 8.39895 5.19991 8.69895 5.19991C8.59895 5.49991 8.79895 5.5999 8.79895 5.7999C8.59895 5.9999 8.09895 5.7999 7.69895 5.8999C7.69895 5.2999 7.99895 4.49991 7.89895 3.69991ZM7.19895 2.0999C7.29895 2.0999 7.29895 2.09991 7.39895 2.19991C7.59895 2.49991 7.39895 2.8999 7.29895 3.0999C7.09895 2.8999 7.29895 2.3999 7.19895 2.0999ZM7.39895 3.8999C7.29895 3.7999 7.19895 3.6999 7.19895 3.3999C7.39895 3.4999 7.39895 3.6999 7.39895 3.8999ZM7.39895 5.2999C7.29895 5.3999 7.29895 5.2999 7.29895 5.0999C7.39895 4.9999 7.39895 5.1999 7.39895 5.2999ZM7.19895 5.4999C7.39895 5.4999 7.29895 5.69991 7.39895 5.69991C7.39895 5.89991 7.09895 5.8999 6.99895 5.7999C7.09895 5.6999 7.19895 5.5999 7.19895 5.4999ZM4.89895 4.2999C4.89895 4.1999 4.89895 4.0999 4.79895 4.0999C4.69895 3.3999 4.89895 2.6999 4.79895 2.0999C5.09895 1.8999 5.59895 2.0999 5.89895 1.9999V3.0999C5.79895 3.1999 5.69895 3.19991 5.49895 3.19991C5.39895 3.49991 5.79895 3.2999 5.89895 3.4999C5.89895 4.3999 5.79895 5.2999 6.09895 5.8999C5.49895 5.7999 5.19895 5.9999 4.69895 5.9999C4.79895 5.3999 4.69895 4.5999 5.19895 4.3999C5.19895 4.2999 4.89895 4.3999 4.89895 4.2999ZM4.39895 4.2999C4.19895 4.2999 4.19895 3.79991 4.29895 3.69991C4.59895 3.69991 4.49895 4.1999 4.39895 4.2999ZM4.19895 5.2999C4.29895 4.9999 4.19895 4.9999 4.29895 4.5999C4.49895 4.5999 4.49895 5.3999 4.19895 5.2999ZM4.39895 3.19991C4.09895 3.29991 4.09895 2.8999 4.19895 2.7999C4.49895 2.7999 4.59895 3.09991 4.39895 3.19991ZM4.39895 2.0999C4.39895 2.2999 4.29895 2.2999 4.29895 2.3999C4.09895 2.3999 4.19895 2.19991 4.09895 2.19991C4.19895 2.09991 4.29895 2.0999 4.39895 2.0999ZM4.19895 5.7999C4.29895 5.7999 4.29895 6.0999 4.09895 5.9999C4.19895 5.9999 4.19895 5.8999 4.19895 5.7999ZM3.49895 2.0999C3.49895 2.3999 3.09895 2.3999 3.09895 2.0999H3.49895ZM2.49895 2.19991C2.49895 2.39991 2.19895 2.3999 2.09895 2.5999C1.89895 2.3999 2.19895 2.09991 2.49895 2.19991ZM2.09895 2.8999C2.29895 2.6999 2.59895 2.4999 2.79895 2.2999C2.79895 2.1999 2.89895 2.1999 2.89895 2.0999H3.09895C3.19895 2.4999 2.79895 2.3999 2.79895 2.5999C2.79895 2.6999 2.69895 2.6999 2.69895 2.7999C2.69895 3.0999 2.79895 3.3999 2.79895 3.7999C2.49895 3.7999 2.49895 4.0999 2.19895 3.9999C2.19895 3.5999 1.99895 3.3999 2.09895 2.8999ZM2.19895 6.19991V4.5999C2.39895 4.3999 2.59895 4.1999 2.79895 4.0999C3.09895 4.5999 2.99895 5.4999 3.29895 5.9999C2.89895 6.0999 2.49895 6.09991 2.19895 6.19991ZM20.3989 17.2999C20.2989 18.2999 20.199 19.2999 19.999 20.0999C17.099 20.1999 13.9989 20.0999 11.0989 20.2999C10.8989 20.2999 10.7989 20.2999 10.8989 20.0999C10.5989 20.0999 10.5989 20.2999 10.3989 20.2999C10.5989 19.9999 10.7989 19.3999 10.5989 18.9999C9.79895 18.9999 9.79895 19.7999 9.49895 20.2999C8.79895 20.1999 8.39895 20.3999 7.69895 20.3999C7.89895 19.6999 8.39895 19.3999 8.59895 18.6999C8.19895 18.1999 7.59895 18.7999 7.39895 19.1999C7.19895 19.6999 6.79895 19.9999 6.59895 20.4999H5.59895C5.79895 19.9999 6.09895 19.5999 6.39895 19.0999C6.59895 18.5999 6.99895 18.3999 7.09895 17.6999C6.89895 17.3999 6.69895 17.6999 6.39895 17.6999C6.29895 17.8999 6.09895 17.9999 5.99895 18.1999C5.79895 18.5999 5.49895 18.8999 5.29895 19.2999C5.09895 19.4999 4.99895 19.2999 4.79895 19.4999C4.39895 19.7999 4.19895 20.1999 3.79895 20.4999C3.59895 20.3999 3.79895 20.0999 3.99895 20.0999C3.99895 19.8999 3.89895 19.5999 4.09895 19.4999C4.19895 19.0999 4.29895 18.8999 4.49895 18.5999C4.59895 17.8999 4.99895 17.3999 5.19895 16.6999C4.59895 16.7999 4.49895 17.2999 4.19895 17.6999C3.99895 18.0999 3.69895 18.4999 3.49895 18.9999C3.29895 18.8999 3.49895 18.3999 3.39895 18.1999C3.49895 17.5999 3.69895 17.0999 3.79895 16.4999C3.89895 16.2999 3.99895 15.9999 3.99895 15.6999C4.19895 15.4999 3.99895 15.0999 3.89895 14.8999C3.69895 14.8999 3.49895 14.9999 3.39895 15.1999C3.19895 15.1999 3.19895 15.6999 3.09895 15.4999C3.09895 12.8999 2.59895 10.6999 2.59895 8.0999C2.59895 7.7999 2.39895 7.6999 2.39895 7.3999C3.99895 7.3999 5.49895 7.4999 7.19895 7.5999C7.09895 7.6999 6.99895 7.8999 6.89895 7.9999C6.79895 8.0999 6.69895 8.1999 6.49895 8.2999C5.89895 9.9999 5.49895 12.2999 5.89895 14.4999C6.09895 15.0999 6.49895 15.4999 6.89895 15.8999C7.79895 16.3999 8.49895 16.9999 9.39895 17.5999C11.0989 17.9999 13.1989 17.9999 14.8989 17.5999C15.0989 17.4999 15.3989 17.3999 15.5989 17.1999C16.9989 15.9999 18.3989 14.6999 18.5989 12.2999V10.8999C18.3989 9.2999 17.8989 7.9999 16.8989 7.2999C17.1989 7.0999 17.9989 7.2999 18.5989 7.3999C18.799 7.3999 18.9989 7.3999 19.2989 7.3999C19.6989 7.3999 20.1989 7.2999 20.6989 7.3999C20.7989 7.5999 20.7989 7.89991 20.8989 8.19991C20.7989 9.89991 20.6989 11.4999 20.6989 13.2999C20.7989 13.7999 20.7989 14.2999 20.8989 14.6999C20.6989 15.4999 20.5989 16.3999 20.3989 17.2999ZM20.7989 6.0999C20.1989 5.9999 19.5989 5.79991 18.8989 5.69991C18.9989 5.39991 19.6989 5.6999 19.8989 5.4999C20.2989 5.2999 20.1989 4.5999 20.1989 3.9999C20.1989 3.6999 20.2989 3.3999 20.2989 2.8999C19.8989 1.8999 18.4989 2.4999 17.3989 2.3999C17.1989 3.0999 16.8989 4.1999 17.0989 5.0999C17.299 5.5999 18.0989 5.3999 18.5989 5.5999C18.4989 5.8999 17.8989 5.69991 17.5989 5.69991C17.299 5.59991 16.8989 5.5999 16.5989 5.4999C14.2989 5.5999 12.2989 5.49991 10.0989 5.69991C10.1989 4.49991 10.1989 3.1999 9.99895 2.0999H13.0989C12.7989 2.4999 12.1989 2.5999 11.7989 2.8999C11.3989 3.0999 10.8989 3.3999 10.6989 3.7999C10.8989 3.8999 11.1989 3.5999 11.4989 3.3999C11.8989 3.2999 11.9989 2.9999 12.2989 2.8999C12.6989 2.4999 13.399 2.2999 13.999 1.9999C14.399 1.9999 14.699 1.9999 14.999 2.0999C16.299 2.0999 17.4989 2.19991 18.7989 2.19991C19.3989 2.29991 20.2989 2.2999 20.7989 2.4999C20.8989 2.7999 20.9989 3.0999 21.0989 3.3999C20.9989 4.3999 20.7989 5.1999 20.7989 6.0999ZM14.8989 2.3999C14.9989 2.2999 14.8989 2.2999 14.8989 2.3999V2.3999ZM14.8989 2.3999C14.3989 2.5999 13.899 2.6999 13.499 3.0999C13.999 2.8999 14.5989 2.7999 14.8989 2.3999ZM15.999 2.9999C16.099 2.8999 15.999 2.8999 15.999 2.9999V2.9999ZM14.1989 3.8999C14.8989 3.6999 15.3989 3.2999 15.8989 2.9999C15.4989 2.9999 15.2989 3.2999 14.8989 3.3999C14.7989 3.5999 14.3989 3.5999 14.1989 3.8999ZM13.499 3.0999C13.399 3.0999 13.599 3.1999 13.499 3.0999V3.0999ZM12.8989 3.69991C12.9989 3.59991 12.8989 3.59991 12.8989 3.69991V3.69991ZM12.7989 3.7999C12.8989 3.7999 12.8989 3.6999 12.7989 3.7999C12.7989 3.6999 12.7989 3.6999 12.7989 3.7999ZM12.6989 3.7999C12.7989 3.7999 12.7989 3.7999 12.6989 3.7999C12.6989 3.6999 12.6989 3.7999 12.6989 3.7999ZM11.8989 4.3999C12.1989 4.2999 12.4989 4.0999 12.6989 3.7999C12.3989 3.9999 12.0989 4.1999 11.8989 4.3999ZM14.1989 5.3999C14.6989 5.3999 14.8989 4.9999 15.3989 4.8999C15.6989 4.5999 16.1989 4.4999 16.3989 4.0999C15.7989 4.0999 15.5989 4.4999 15.1989 4.5999C14.8989 4.9999 14.3989 5.0999 14.1989 5.3999ZM11.8989 4.3999C11.5989 4.3999 11.8989 4.6999 11.8989 4.3999V4.3999ZM11.2989 4.7999C11.3989 4.7999 11.4989 4.7999 11.2989 4.7999C11.3989 4.6999 11.2989 4.7999 11.2989 4.7999ZM14.1989 5.3999C13.9989 5.4999 14.1989 5.4999 14.1989 5.3999V5.3999ZM12.999 7.19991C12.799 6.99991 12.299 6.9999 11.999 6.7999C11.299 6.7999 10.7989 6.8999 10.2989 6.9999C9.99895 7.1999 9.69895 7.2999 9.39895 7.4999C9.09895 7.6999 8.99895 7.8999 8.59895 7.9999C8.39895 8.1999 8.19895 8.4999 7.89895 8.5999C7.89895 8.7999 7.69895 8.8999 7.59895 8.9999C7.49895 9.09991 7.49895 9.2999 7.39895 9.3999C7.39895 9.4999 7.39895 9.69991 7.29895 9.69991C7.39895 11.1999 7.59895 12.5999 7.99895 13.8999C8.29895 14.4999 8.99895 14.6999 9.39895 15.1999C9.99895 15.4999 10.6989 15.5999 11.4989 15.6999C11.7989 15.5999 12.0989 15.5999 12.3989 15.5999C13.5989 15.3999 14.4989 14.8999 15.1989 14.1999C15.2989 13.8999 15.4989 13.6999 15.6989 13.4999C15.3989 12.7999 15.9989 12.3999 16.1989 11.8999C16.1989 10.5999 15.9989 9.3999 15.5989 8.4999C15.2989 7.8999 14.6989 7.6999 14.1989 7.3999C14.0989 7.3999 13.999 7.3999 13.999 7.2999C13.799 7.1999 13.299 7.09991 12.999 7.19991ZM9.59895 11.5999C9.49895 11.4999 9.49895 11.3999 9.39895 11.1999C9.69895 11.0999 9.59895 11.3999 9.59895 11.5999ZM9.69895 11.8999C9.69895 11.7999 9.79895 11.8999 9.69895 11.8999C9.69895 12.0999 9.69895 11.9999 9.69895 11.8999ZM10.0989 9.7999C10.0989 9.6999 10.1989 9.7999 10.0989 9.7999C10.1989 9.8999 10.0989 9.8999 10.0989 9.7999ZM11.7989 7.69991C11.5989 7.99991 11.7989 8.2999 11.8989 8.4999C11.5989 8.4999 11.2989 7.69991 11.7989 7.69991ZM12.1989 11.5999C12.0989 11.5999 12.1989 11.5999 12.1989 11.5999C12.2989 11.5999 12.1989 11.6999 12.1989 11.5999ZM12.8989 14.4999C12.8989 14.3999 12.9989 14.4999 13.0989 14.4999C13.0989 14.5999 12.8989 14.5999 12.8989 14.4999ZM15.0989 11.9999C14.8989 11.8999 14.9989 12.1999 14.6989 12.1999C14.7989 11.9999 14.7989 11.8999 14.8989 11.6999C15.0989 11.6999 15.1989 11.7999 15.0989 11.9999ZM13.999 8.19991C14.199 8.29991 14.3989 8.3999 14.5989 8.5999C14.6989 8.7999 14.799 8.9999 14.999 9.0999C15.099 9.8999 15.1989 10.5999 15.1989 11.4999C14.8989 11.5999 14.799 11.7999 14.499 11.8999C13.699 11.8999 13.0989 11.6999 12.5989 11.3999C12.3989 11.0999 12.1989 10.8999 12.0989 10.5999V9.4999C12.2989 9.2999 12.3989 9.0999 12.5989 8.8999C12.7989 8.7999 13.0989 8.6999 13.0989 8.2999C13.0989 8.1999 12.999 8.1999 12.999 8.0999C13.199 8.0999 13.1989 8.2999 13.3989 8.2999C13.5989 8.2999 13.699 8.09991 13.999 8.19991Z"/>
</symbol><symbol id="logo-footer" viewBox="0 0 102 34">
<path d="M19.2204 21.3813C19.1204 18.6962 18.7204 16.1105 18.7204 13.4255C18.7204 11.2376 19.1204 9.04976 18.3204 6.96135C18.3204 6.76246 18.4204 6.46411 18.4204 6.26522C18.6204 5.27074 15.1204 5.76798 14.6204 6.76246C14.3204 7.0608 14.1204 7.35914 14.2204 7.75694C14.2204 7.85638 14.3204 7.95583 14.3204 8.05528C13.6204 11.2376 12.7204 14.3205 11.7204 17.4034C11.3204 18.5967 10.8204 19.6907 10.4204 20.884C9.82041 19.7901 9.22041 18.6962 8.82041 17.5028C7.42041 14.1216 6.22041 10.6409 4.52041 7.35914C4.72041 5.86743 1.32041 5.96688 0.620408 7.35914C-0.179592 9.04976 -0.0795918 10.7404 0.220408 12.5304C0.520408 14.5194 0.620408 16.5083 0.620408 18.5967C0.620408 22.5746 1.02041 26.4531 1.02041 30.431C0.620408 30.8288 0.520408 31.326 0.920408 31.8233C1.12041 32.0222 1.32041 32.2211 1.52041 32.3205C2.52041 33.0167 5.12041 32.42 5.12041 31.0277C5.12041 26.9503 4.82041 22.873 4.72041 18.6962C4.72041 18.2984 4.72041 17.9006 4.72041 17.5028C4.82041 17.6023 4.82041 17.8012 4.92041 17.9006C5.52041 19.4918 6.22041 21.0829 7.12041 22.5746C8.02041 24.0664 8.42041 25.6575 8.92041 27.2487C8.72041 27.4476 8.62041 27.7459 8.72041 27.9448C8.72041 28.1437 8.82041 28.2432 9.02041 28.3426C9.62041 28.8399 10.8204 28.641 11.5204 28.3426C11.8204 28.2432 12.1204 28.0443 12.3204 27.9448C12.6204 27.7459 13.2204 27.2487 13.0204 26.7514C13.0204 26.652 12.9204 26.5526 12.9204 26.4531C13.4204 25.1603 13.6204 23.8675 13.9204 22.5746C14.2204 21.1824 14.7204 19.7901 15.2204 18.4973C15.3204 19.094 15.3204 19.6907 15.4204 20.3868C15.6204 22.9724 15.4204 25.4586 15.4204 27.9448C15.4204 28.7404 15.5204 29.536 15.6204 30.431C15.7204 30.7294 16.0204 32.2211 15.9204 32.3205C15.1204 32.8178 15.3204 33.4144 16.1204 33.6133C17.0204 33.8122 18.2204 33.5139 18.9204 32.9172C20.1204 31.8233 19.5204 30.1327 19.3204 28.7404C18.8204 26.3537 19.3204 23.768 19.2204 21.3813Z"/>
<path d="M27.6201 22.0776C27.5201 20.0887 26.8201 18.1992 26.8201 16.2102C26.8201 13.9229 27.0201 11.6356 26.6201 9.34833C26.5201 8.65219 22.5201 9.44778 22.7201 10.3428C23.0201 12.4312 22.9201 14.5196 22.9201 16.7075C22.9201 18.6964 23.4201 20.5859 23.6201 22.5749C23.9201 24.6633 23.5201 26.7517 23.7201 28.7406C23.8201 29.7351 24.5201 31.4257 23.8201 32.3208C23.4201 32.818 25.3201 32.6191 25.4201 32.6191C26.2201 32.5196 27.2201 32.2213 27.7201 31.6246C28.4201 30.829 27.9201 29.2379 27.8201 28.2434C27.5201 26.2544 27.7201 24.0666 27.6201 22.0776Z"/>
<path d="M43.9205 18.7956C41.8205 16.0111 38.0205 18.0001 35.3205 17.3039C33.9205 16.9061 33.9205 15.0166 33.9205 13.9227C33.9205 12.5304 33.8205 11.2376 33.6205 9.84534C33.5205 8.75142 33.6205 7.75694 34.3205 6.96136C34.4205 6.86191 35.2205 6.66302 35.1205 6.66302C35.5205 6.56357 35.8205 6.56357 36.2205 6.56357C37.7205 6.46412 40.8205 6.76247 40.2205 9.04976C39.9205 10.0442 43.8205 9.44755 44.1205 8.45308C45.3205 3.87848 36.8205 4.77351 34.4205 5.3702C32.2205 5.96688 29.8205 7.16026 29.6205 9.7459C29.5205 10.9393 29.9205 12.1326 29.9205 13.326C30.0205 14.7183 29.7205 16.1106 30.2205 17.4034C31.3205 20.3868 35.7205 18.9945 38.0205 19.094C41.8205 19.3923 40.7205 24.5636 40.7205 26.9504C40.7205 28.2432 41.9205 30.3316 40.9205 31.4255C40.3205 32.1216 38.9205 32.1216 38.1205 32.2211C37.3205 32.3205 35.9205 32.5194 35.4205 31.7238C34.4205 30.3316 35.5205 27.9448 35.3205 26.3537C35.2205 25.4586 31.2205 26.2542 31.4205 27.3481C31.7205 29.9338 30.0205 33.4145 33.8205 33.9117C36.2205 34.21 39.0205 33.7128 41.3205 33.0167C42.5205 32.6189 43.6205 32.1216 44.5205 31.2266C45.5205 30.3316 45.2205 28.9393 44.9205 27.7459C44.4205 24.6631 45.8205 21.2818 43.9205 18.7956Z"/>
<path d="M61.3201 18.5966C61.2201 14.8176 60.6201 11.1381 60.6201 7.35905C60.6201 5.37009 56.6201 6.06623 56.6201 7.65739C56.6201 11.2375 57.1201 14.8176 57.3201 18.3977C57.3201 18.4972 57.3201 18.4972 57.3201 18.5966C55.4201 18.5966 53.4201 18.7955 51.4201 18.7955C51.6201 14.2209 50.8201 9.64634 51.0201 4.9723C51.0201 4.37561 47.1201 4.87285 47.1201 5.96678C46.9201 10.4419 47.7201 14.8176 47.6201 19.2928C47.5201 21.3812 47.4201 23.569 47.3201 25.6574C47.3201 26.7514 47.5201 27.8453 47.6201 28.9392C47.7201 29.9337 48.1201 31.2265 47.8201 32.221C47.6201 33.0166 51.4201 32.5193 51.7201 31.5248C52.2201 29.7348 51.5201 27.5469 51.3201 25.7569C51.1201 24.0663 51.3201 22.2762 51.4201 20.5856C53.4201 20.4861 55.5201 20.2873 57.5201 20.5856C57.6201 21.9779 57.7201 23.3701 57.8201 24.663C57.9201 25.8563 58.0201 26.9502 58.0201 28.1436C58.0201 29.1381 58.1201 30.6298 57.8201 31.6243C57.0201 33.7127 60.9201 33.5138 61.5201 32.0221C62.2201 30.1326 62.0201 27.8453 61.9201 25.8563C61.7201 23.3701 61.3201 20.9834 61.3201 18.5966Z"/>
<path d="M78.22 22.9729C77.32 20.1884 75.82 17.8016 74.62 15.216C75.62 13.3265 76.62 11.3375 77.52 9.34855C78.32 7.55849 78.92 5.56954 80.62 4.27672C81.22 3.87892 81.22 3.38169 80.32 3.28224C79.42 3.18279 78.22 3.48113 77.52 3.97837C76.12 5.27119 75.12 6.66346 74.42 8.35407C73.52 10.4425 72.52 12.4314 71.52 14.4204C71.42 14.5198 71.42 14.7187 71.32 14.8182C70.82 15.1165 70.52 15.6138 70.72 16.111C69.92 17.7022 69.12 19.1939 68.22 20.6856C67.92 15.216 67.22 9.64689 67.02 4.17727C67.02 2.88445 63.02 3.68003 63.12 5.17174C63.32 12.0336 64.32 18.7961 64.42 25.658C64.42 25.658 64.42 25.658 64.42 25.7574C64.12 26.0558 64.22 26.2547 64.52 26.3541C64.52 28.1442 64.42 29.8348 64.32 31.6248C63.82 32.321 64.82 32.7188 65.42 32.7188H65.52C66.22 32.7188 68.12 32.4204 68.22 31.3265C68.42 29.2381 68.52 27.1497 68.42 25.0613C70.02 23.3707 71.32 21.4812 72.52 19.4922C73.32 20.9839 74.02 22.4756 74.52 24.0668C75.42 26.7519 76.82 29.3375 77.62 32.0226C78.12 33.8127 82.12 32.7188 81.52 31.0282C80.52 28.2436 79.12 25.7574 78.22 22.9729Z"/>
<path d="M101.721 18.3983C101.521 17.6027 100.321 17.6027 99.4207 17.6027C99.4207 17.3043 99.4207 16.9066 99.4207 16.6082C99.3207 13.9231 99.2207 11.238 99.0207 8.6524C98.8207 6.1662 97.4207 5.37062 95.0207 5.47007C92.6207 5.56952 89.8207 5.96731 87.5207 6.86234C84.9207 7.85682 83.4207 9.74632 82.9207 12.5309C82.4207 15.5143 83.1207 18.6966 83.3207 21.68C83.5207 25.1607 83.4207 28.6414 83.4207 32.1221C83.4207 32.7187 87.3207 32.1221 87.3207 31.1276C87.3207 28.343 87.3207 25.5585 87.3207 22.8734C87.3207 22.0778 87.2207 21.2823 87.2207 20.4867C88.6207 19.89 90.9207 20.4867 92.3207 20.5861C93.4207 20.6856 94.5207 20.3872 95.5207 20.2878C95.5207 22.5751 95.6207 24.8624 95.7207 27.1497C95.7207 28.343 96.2207 30.6303 95.3207 31.6248C94.9207 32.1221 96.8207 31.9232 96.9207 31.9232C97.7207 31.8237 98.7207 31.5254 99.2207 30.9287C100.121 29.8348 99.7207 27.1497 99.6207 25.8569C99.5207 23.9673 99.5207 22.0778 99.5207 20.1883C100.621 19.9894 101.921 19.2933 101.721 18.3983ZM87.1207 18.2988C87.0207 17.1055 86.9207 15.8126 86.8207 14.6193C86.6207 12.332 86.9207 9.05019 89.1207 7.65792C89.7207 7.26013 90.8207 7.35958 91.5207 7.26013C92.5207 7.06123 93.5207 6.86234 94.3207 7.45902C95.5207 8.25461 95.2207 11.1386 95.2207 12.332C95.2207 14.3209 95.4207 16.3099 95.5207 18.2988C94.9207 18.3983 94.4207 18.3983 93.8207 18.3983C91.5207 18.1994 89.2207 17.8016 87.1207 18.2988Z"/>
<path d="M24.2204 6.663C24.7204 6.56355 25.2204 6.4641 25.7204 6.16576C25.8204 6.06631 25.9204 5.96686 25.9204 5.96686C26.4204 5.66852 26.9204 5.17128 26.6204 4.57459C26.1204 3.48067 26.2204 2.38675 26.2204 1.19337C26.2204 0.198895 25.2204 0 24.4204 0C23.7204 0.0994477 22.2204 0.596686 22.2204 1.49172C22.2204 2.48619 22.1204 3.48067 22.3204 4.47515C22.3204 4.57459 22.2204 4.67404 22.2204 4.87294C22.1204 5.07183 22.2204 5.27073 22.3204 5.46962V5.56907C22.3204 5.66852 22.3204 5.76797 22.3204 5.86742C22.4204 6.06631 22.5204 6.26521 22.7204 6.36465C23.3204 6.663 23.8204 6.663 24.2204 6.663Z"/>
</symbol><symbol id="mail" viewBox="0 0 32 21">
<path d="M28 0H4C1.8 0 0 1.8 0 4V17C0 19.2 1.8 21 4 21H28C30.2 21 32 19.2 32 17V4C32 1.8 30.2 0 28 0ZM2 5.3L9 10.6L2 15.9V5.3ZM30 17C30 18.1 29.1 19 28 19H4C2.9 19 2 18.1 2 17L9.8 11.1L14.2 14.4C14.7 14.8 15.4 15 16 15C16.6 15 17.3 14.8 17.8 14.4L22.2 11.1L30 17ZM30 15.8L23 10.5L30 5.2V15.8ZM17.2 13.6C16.8 13.9 16.4 14 16 14C15.6 14 15.1 13.9 14.8 13.6L10.7 10.5L9.9 9.9L2 4C2 2.9 2.9 2 4 2H28C29.1 2 30 2.9 30 4L17.2 13.6Z"/>
</symbol><symbol id="phone" viewBox="0 0 25 24">
<g>
<path d="M17.4395 24C17.0363 24 16.7339 24 16.3306 24C11.3911 23.4074 7.7621 21.1358 5.14113 18.2717C2.52016 15.4075 0.403226 11.7532 0 6.7162C0 6.22237 0 5.82731 0 5.33349C0.100806 4.44461 0.504032 3.85202 1.10887 3.25943C1.71371 2.56808 2.72177 1.77796 3.62903 1.6792C4.33468 1.6792 5.44355 2.17302 5.84677 2.76561C6.25 3.25943 6.45161 4.34584 6.65323 5.13596C6.85484 6.02484 7.25806 7.11125 7.15726 7.90137C6.95565 9.08655 5.34274 9.58037 4.93952 10.4693C6.55242 14.1235 9.07258 16.889 12.5 18.6667C13.3065 18.1729 14.1129 16.7902 15.3226 16.7902C15.7258 16.7902 16.3306 16.9877 16.7339 17.0865C17.2379 17.1852 17.6411 17.3828 18.0444 17.5803C18.75 17.8766 20.0605 18.1729 20.4637 18.7655C20.8669 19.3581 21.1694 20.3457 21.0685 20.9383C20.7661 22.2222 18.6492 23.6049 17.4395 24Z"/>
<path d="M12.6008 1.48147C18.5484 1.48147 23.4879 6.22217 23.4879 12.1481H25C25 5.43205 19.4557 0 12.6008 0V1.48147Z"/>
<path d="M12.6008 9.18506V10.7653C13.4073 10.7653 14.0121 11.3579 14.0121 12.148H15.625C15.625 10.5678 14.3145 9.18506 12.6008 9.18506Z"/>
<path d="M12.6008 6.12356C15.9274 6.12356 18.75 8.79021 18.75 12.1482H20.3629C20.3629 8.00009 16.9355 4.64209 12.7016 4.64209V6.12356H12.6008Z"/>
</g>
</symbol><symbol id="search" viewBox="0 0 18 18">
<path d="M17.6932 16.0568L14.2159 12.5795C15.2386 11.25 15.75 9.61364 15.75 7.875C15.75 3.47727 12.2727 0 7.875 0C3.47727 0 0 3.47727 0 7.875C0 12.2727 3.47727 15.75 7.875 15.75C9.61364 15.75 11.25 15.1364 12.5795 14.2159L16.0568 17.6932C16.2614 17.8977 16.4659 18 16.875 18C17.4886 18 18 17.4886 18 16.875C18 16.6705 17.8977 16.3636 17.6932 16.0568ZM2.25 7.875C2.25 4.80682 4.80682 2.25 7.875 2.25C10.9432 2.25 13.5 4.80682 13.5 7.875C13.5 10.9432 10.9432 13.5 7.875 13.5C4.80682 13.5 2.25 10.9432 2.25 7.875Z"/>
</symbol><symbol id="twitter" viewBox="0 0 25 20">
<path d="M24.225 4.3001C24.025 3.9001 23.325 4.0001 22.825 3.9001H21.725C21.825 3.5001 22.025 3.3001 22.225 2.9001C22.325 2.5001 22.525 2.2001 22.425 1.6001C22.525 1.4001 22.625 1.2001 22.725 1.0001C22.825 0.900095 22.925 0.500098 22.825 0.300098C22.725 0.100098 22.525 0.100098 22.225 0.100098C22.125 0.100098 22.025 0.200096 22.025 0.200096C21.625 0.600096 21.225 1.2001 20.725 1.6001H20.625C20.525 1.6001 20.625 1.6001 20.525 1.7001C20.425 1.8001 20.225 1.9001 20.125 1.9001C19.825 2.1001 19.625 2.3001 19.225 2.4001C18.725 2.2001 18.025 2.1001 17.325 2.0001C16.125 2.1001 15.025 2.2001 14.325 2.7001C13.425 3.0001 12.825 3.7001 12.225 4.3001C12.225 4.6001 11.925 4.7001 11.825 5.0001C11.825 5.0001 11.825 5.1001 11.725 5.1001C11.725 5.3001 11.625 5.4001 11.625 5.6001C11.625 5.7001 11.825 6.0001 11.625 6.1001C10.825 6.0001 10.125 5.5001 9.52501 5.1001C8.82501 4.7001 8.02501 4.5001 7.42501 4.0001C6.72502 3.7001 6.12501 3.2001 5.62501 2.7001C5.42501 2.4001 5.12501 2.2001 4.92501 1.8001C4.52501 1.6001 4.72501 0.900097 4.22501 0.900097C3.92501 0.900097 3.92501 1.1001 3.82501 1.3001C3.72501 1.5001 3.42501 1.5001 3.42501 1.8001C3.42501 1.8001 3.42501 1.9001 3.32501 1.9001C3.12501 3.0001 2.82501 3.9001 2.82501 5.2001C2.92501 5.6001 3.12502 5.9001 3.42501 6.2001C3.02501 6.3001 2.72501 6.4001 2.52501 6.7001C2.42501 7.8001 2.92501 8.3001 3.22501 9.0001C3.32501 9.40009 3.62501 9.7001 3.82501 10.0001C3.82501 10.2001 4.02501 10.3001 4.12501 10.4001C4.12501 10.5001 4.22501 10.5001 4.22501 10.6001C4.22501 10.7001 4.52501 10.8001 4.32501 10.8001C3.92501 10.9001 3.32501 10.9001 3.02501 11.2001C2.92501 11.5001 2.92501 12.0001 3.02501 12.3001C3.02501 12.5001 3.32501 12.6001 3.32501 12.8001C3.82501 13.2001 4.42501 13.5001 4.92501 13.9001C5.52501 14.1001 6.12501 14.2001 6.82501 14.3001C6.72501 14.6001 6.52501 14.9001 6.22501 15.0001C5.42501 15.4001 4.42501 15.5001 3.52501 15.7001C2.92501 15.7001 2.52501 15.9001 1.92501 15.9001C1.62501 16.0001 1.02501 16.0001 0.825013 16.1001C0.725013 16.2001 0.725012 16.2001 0.625012 16.3001C0.525012 16.7001 0.725013 17.0001 1.02501 17.2001C1.02501 17.5001 1.22501 17.5001 1.42501 17.6001C1.52501 17.8001 1.72501 17.9001 1.82501 18.0001C2.32501 18.5001 3.12501 18.8001 3.72501 19.1001C4.52501 19.3001 5.32501 19.5001 6.22501 19.6001C7.12501 19.7001 8.12501 19.7001 9.02501 19.8001H10.025C10.525 19.9001 11.225 19.9001 11.925 19.9001C12.025 19.8001 12.225 19.8001 12.425 19.8001C12.925 19.5001 13.625 19.4001 14.025 19.1001C14.625 18.9001 15.025 18.5001 15.625 18.2001C16.525 17.4001 17.525 16.9001 18.125 15.8001C18.325 15.6001 18.525 15.4001 18.525 15.1001C18.825 14.9001 18.925 14.6001 19.125 14.4001C19.525 14.0001 19.825 13.5001 20.125 13.0001C20.425 12.5001 20.725 11.9001 21.025 11.4001C21.025 11.0001 21.325 10.9001 21.325 10.5001C21.525 10.3001 21.525 9.8001 21.725 9.6001C21.725 9.3001 21.725 9.2001 21.825 9.0001C21.825 7.7001 21.825 6.6001 21.525 5.6001C22.125 5.4001 22.725 5.3001 23.125 5.0001C23.925 5.3001 24.425 4.9001 24.225 4.3001ZM20.825 8.3001C20.625 9.2001 20.225 9.7001 19.825 10.3001C19.925 10.7001 19.725 10.8001 19.725 11.2001C19.525 11.5001 19.425 11.9001 19.325 12.2001C19.125 12.5001 19.025 12.8001 18.825 13.1001C18.425 13.6001 18.025 14.2001 17.625 14.7001C17.225 15.3001 16.725 15.7001 16.325 16.2001C15.925 16.7001 15.425 17.1001 14.925 17.5001C14.425 17.7001 14.025 17.9001 13.625 18.2001C13.425 18.3001 13.125 18.4001 12.925 18.5001C12.725 18.6001 12.425 18.6001 12.225 18.8001C11.125 18.9001 9.92501 19.0001 8.62501 18.9001C7.62501 18.8001 6.52501 18.7001 5.62501 18.5001C4.72501 18.3001 4.12501 17.8001 3.32501 17.5001C3.52501 17.3001 3.92501 17.3001 4.32501 17.3001C4.32501 17.1001 4.72501 17.3001 4.72501 17.2001C5.02501 17.3001 5.02501 17.1001 5.22501 17.1001C5.82501 16.9001 6.42501 16.8001 6.92501 16.5001C7.22502 16.4001 7.32501 16.1001 7.62501 15.9001C7.62501 15.7001 7.72501 15.6001 7.82501 15.5001C7.82501 15.2001 8.02501 15.1001 7.92501 14.7001C8.02501 14.5001 8.22501 14.4001 8.22501 14.0001C8.12501 13.9001 8.12501 13.7001 7.92501 13.6001C7.92501 13.4001 7.52501 13.5001 7.52501 13.4001C7.22501 13.4001 7.12501 13.4001 6.92501 13.3001C6.72502 13.3001 6.42501 13.4001 6.42501 13.2001C5.62501 13.2001 5.12501 12.8001 4.52501 12.5001C4.92501 12.2001 5.52501 12.1001 5.82501 11.8001C6.32501 11.7001 6.92501 11.7001 6.92501 11.1001C6.92501 10.4001 6.12501 10.4001 5.62501 10.3001C4.82501 9.6001 4.42501 8.6001 3.82501 7.8001C4.02501 7.6001 4.42501 7.6001 4.52501 7.4001C5.02501 7.5001 5.02501 7.1001 5.22501 6.9001C5.22501 6.4001 4.92501 6.3001 4.62501 6.1001C4.32501 5.9001 4.12502 5.6001 3.92501 5.4001C3.92501 4.6001 3.92501 3.7001 4.02501 3.0001C4.12501 3.0001 4.12501 3.0001 4.12501 3.1001C4.32501 3.5001 4.72502 3.9001 4.92501 4.3001C5.42501 4.7001 5.82501 5.2001 6.52501 5.4001C7.02501 5.8001 7.62501 6.0001 8.12501 6.4001C8.72501 6.7001 9.32501 7.0001 9.82501 7.3001C10.525 7.5001 10.925 8.0001 11.825 7.9001C12.025 7.8001 12.225 7.7001 12.425 7.6001C12.725 7.1001 12.325 6.5001 12.525 6.0001C12.825 5.3001 13.325 5.0001 13.825 4.5001C14.125 4.3001 14.425 4.2001 14.625 4.0001C14.925 3.9001 15.325 3.8001 15.625 3.6001C16.025 3.6001 16.325 3.5001 16.625 3.5001H17.925C18.125 3.6001 18.425 3.6001 18.625 3.6001C18.825 3.7001 19.025 3.9001 19.325 4.0001C20.125 4.7001 20.625 5.7001 20.725 7.0001C20.725 7.3001 20.825 7.7001 20.825 8.3001ZM21.125 2.7001C21.025 3.0001 20.925 3.4001 20.525 3.5001C20.525 3.4001 20.425 3.4001 20.425 3.3001C20.425 3.1001 20.625 3.1001 20.725 3.0001C20.825 2.9001 20.925 2.7001 21.125 2.7001C21.225 2.7001 21.125 2.6001 21.125 2.7001ZM15.625 5.7001C15.825 5.8001 15.925 6.0001 16.125 6.1001C16.225 6.3001 16.425 6.4001 16.725 6.5001C16.725 6.3001 17.025 6.5001 17.125 6.3001C17.325 6.3001 17.325 6.1001 17.425 6.0001C17.425 5.5001 17.325 5.0001 17.025 4.7001C16.325 4.2001 15.325 4.7001 15.625 5.7001Z"/>
</symbol></svg>